<?xml version="1.0" standalone="no"?>
<!DOCTYPE svg PUBLIC "-//W3C//DTD SVG 20010904//EN"
 "http://www.w3.org/TR/2001/REC-SVG-20010904/DTD/svg10.dtd">
<svg version="1.0" xmlns="http://www.w3.org/2000/svg"
 width="778.000000pt" height="778.000000pt" viewBox="0 0 778.000000 778.000000"
 preserveAspectRatio="xMidYMid meet">
<metadata>
Created by potrace 1.14, written by Peter Selinger 2001-2017
</metadata>
<g transform="translate(0.000000,778.000000) scale(0.100000,-0.100000)"
fill="#000000" stroke="none">
<path d="M5305 7110 c-202 -53 -383 -167 -628 -394 -293 -273 -667 -760 -967
-1261 -47 -77 -86 -142 -87 -144 -1 -2 -26 16 -55 41 -156 133 -457 282 -708
349 -114 31 -342 33 -435 5 -144 -44 -278 -134 -383 -255 -212 -248 -349 -577
-382 -921 -41 -428 130 -973 498 -1590 326 -545 636 -884 1182 -1289 367 -273
695 -476 915 -566 50 -21 91 -38 93 -40 1 -1 -34 -58 -79 -126 -145 -221 -249
-341 -347 -403 -46 -29 -55 -61 -26 -90 26 -27 59 -18 137 34 108 72 226 205
379 426 l70 102 83 -29 c115 -40 170 -47 195 -24 11 10 20 28 20 40 0 25 -29
55 -53 55 -9 0 -42 10 -74 21 -32 12 -69 26 -82 31 -23 8 -23 9 -5 36 10 15
69 113 131 219 335 572 520 990 757 1710 282 858 527 1916 613 2643 21 181 24
553 4 690 -47 332 -181 575 -383 694 -97 56 -252 71 -383 36z m302 -155 c143
-70 252 -244 303 -480 28 -128 38 -454 21 -642 -34 -365 -142 -935 -297 -1558
-209 -843 -470 -1609 -773 -2275 -135 -295 -430 -840 -455 -840 -43 0 -337
172 -596 348 -533 362 -924 703 -1189 1037 -356 448 -697 1114 -780 1523 -77
375 -38 681 129 1017 107 215 245 371 392 443 103 51 157 63 278 63 228 0 630
-162 867 -350 l52 -41 -53 -112 c-122 -259 -149 -389 -89 -434 29 -22 77 -17
107 11 30 27 33 56 10 80 -15 15 -15 21 6 78 94 260 480 883 794 1282 197 251
438 507 601 640 270 219 503 292 672 210z"/>
<path d="M5326 5814 c-21 -20 -20 -37 3 -82 24 -46 73 -325 73 -412 0 -72 15
-100 54 -100 37 0 56 39 55 113 0 64 -41 326 -61 399 -22 79 -86 121 -124 82z"/>
<path d="M5075 5658 c-34 -30 -37 -92 -7 -134 23 -32 42 -196 42 -358 0 -94
13 -119 59 -114 47 6 53 33 47 243 -7 228 -24 330 -61 363 -15 12 -32 22 -40
22 -8 0 -26 -10 -40 -22z"/>
</g>
</svg>
